<svg width="512" height="512" viewBox="0 0 512 512" fill="none" xmlns="http://www.w3.org/2000/svg" xmlns:xlink="http://www.w3.org/1999/xlink" class="h-full w-full" id="iconWithBackground"><rect id="r4" width="512" height="512" x="0" y="0" rx="256" fill="#ffffff" stroke="#000000" stroke-width="0" stroke-opacity="100%" paint-order="stroke"></rect><defs><linearGradient id="linearGradient" gradientUnits="userSpaceOnUse" gradientTransform="rotate(0)" style="transform-origin: center center;"><stop stop-color="#5e88da"></stop><stop offset="1" stop-color="#e3f0ff"></stop></linearGradient><radialGradient id="glare" cx="0" cy="0" r="1" gradientUnits="userSpaceOnUse" gradientTransform="translate(256) rotate(90) scale(512)"><stop stop-color="white"></stop><stop offset="1" stop-color="white" stop-opacity="0"></stop></radialGradient><clipPath id="clip"><use xlink:href="#r4"></use></clipPath></defs><svg xmlns="http://www.w3.org/2000/svg" xmlns:xlink="http://www.w3.org/1999/xlink" aria-hidden="true" role="img" x="128" y="128" class="iconify iconify--carbon" width="256" height="256" viewBox="0 0 32 32" style="color: rgb(0, 0, 0);"><path fill="currentColor" d="M30 11V3a1 1 0 0 0-1-1H19a1 1 0 0 0-1 1v8a6.004 6.004 0 0 0 5 5.91V28h-4v2h10v-2h-4V16.91A6.004 6.004 0 0 0 30 11zm-10 0V4h8v7a4 4 0 1 1-8 0zm-8-9v9.02a3.964 3.964 0 0 1-3.96 3.96A4.005 4.005 0 0 1 4 11.02V2H2v9.02a5.989 5.989 0 0 0 5 5.865V30h2V16.895a5.965 5.965 0 0 0 5-5.875V2z"></path><path fill="currentColor" d="M7 2h2v9.98H7z"></path></svg></svg>